<?xml version="1.0" encoding="UTF-8"?>
<svg version="1.1" xmlns="http://www.w3.org/2000/svg" width="150" height="150">
<path d="M0 0 C1.8125 0.1875 1.8125 0.1875 4 1 C6.76840229 4.60612213 7.6685887 8.15424028 8.5625 12.5625 C9.33835357 16.35410079 10.07703674 19.62449797 12 23 C11.01 23.556875 10.02 24.11375 9 24.6875 C2.91245179 28.96120732 -0.73618306 36.47236612 -4 43 C-3.443125 43.14695313 -2.88625 43.29390625 -2.3125 43.4453125 C6.63383395 46.0748093 13.39165697 50.77616833 18 59 C19.69120447 62.97433051 20.26758976 66.71058735 20.71484375 70.99609375 C20.98789017 73.28073715 20.98789017 73.28073715 22.0625 76.5 C23.14983082 80.55936841 23.14678157 83.81672537 23 88 C21.35 88 19.7 88 18 88 C17.649375 89.2375 17.29875 90.475 16.9375 91.75 C12.24469643 105.56890083 2.43300031 118.26391092 -10 126 C-10.66 125.34 -11.32 124.68 -12 124 C-11.51660156 122.96166016 -11.51660156 122.96166016 -11.0234375 121.90234375 C-8.8158986 115.64203304 -8.85213404 108.42327258 -11.6875 102.4375 C-12.450625 101.633125 -13.21375 100.82875 -14 100 C-15.0828125 98.8553125 -15.0828125 98.8553125 -16.1875 97.6875 C-20.77306415 94.93616151 -25.16023772 94.47906958 -30.40625 95.44140625 C-35.38758028 96.89429425 -38.94657666 98.65118494 -42 103 C-44.28009898 108.99970746 -44.45227252 114.07167046 -42.0390625 120.03125 C-38.92283171 125.93568729 -33.84422591 128.40417757 -28 131 C-28 131.66 -28 132.32 -28 133 C-31.63269705 134.21089902 -35.00375374 134.20052134 -38.7890625 134.23828125 C-39.56575287 134.246353 -40.34244324 134.25442474 -41.14266968 134.26274109 C-42.79528582 134.27658152 -44.44793054 134.28730387 -46.10058594 134.29516602 C-47.75855129 134.3065505 -49.4164841 134.32678017 -51.07421875 134.35668945 C-77.6781967 134.83596804 -105.33737992 126.54306986 -125.12109375 108.19921875 C-127 106 -127 106 -127 103 C-126.14728516 102.88785156 -126.14728516 102.88785156 -125.27734375 102.7734375 C-119.075223 101.71731677 -115.10990358 99.81533479 -111 95 C-107.73061133 90.26531537 -105.44808808 85.82514508 -105 80 C-104.34 80 -103.68 80 -103 80 C-103.14049518 78.52031676 -103.28754826 77.04125484 -103.4375 75.5625 C-103.51871094 74.73878906 -103.59992188 73.91507812 -103.68359375 73.06640625 C-103.78930815 71.01337975 -103.78930815 71.01337975 -105 70 C-105.04080783 68.00041636 -105.04254356 65.99954746 -105 64 C-103.91847656 63.84402344 -102.83695313 63.68804687 -101.72265625 63.52734375 C-99.32218582 62.83588749 -98.28033916 62.41298569 -96.86279297 60.32470703 C-95.93060564 58.09743579 -95.16454879 55.86489861 -94.4375 53.5625 C-93.85541624 51.91613678 -93.26817568 50.27158766 -92.67578125 48.62890625 C-92.39299316 47.8311377 -92.11020508 47.03336914 -91.81884766 46.21142578 C-87.48322147 34.5023912 -79.71858608 24.20983547 -68.65625 18.18359375 C-57.69663119 13.30011654 -44.94468354 11.92583946 -33.48046875 15.890625 C-26.24822471 19.12520344 -19.31948873 23.23280098 -15 30 C-12.45320376 37.64038873 -15.7187088 44.7257595 -19.125 51.5625 C-20.07353489 53.38014699 -21.02851949 55.19451263 -22 57 C-8.50579202 39.60137652 -3.57451786 21.33086269 0 0 Z " fill="#67AD43" transform="translate(127,8)"/>
<path d="M0 0 C0.33 0 0.66 0 1 0 C1 4.95 1 9.9 1 15 C0.34 15 -0.32 15 -1 15 C-1 15.66 -1 16.32 -1 17 C1.31 17 3.62 17 6 17 C6 16.34 6 15.68 6 15 C5.34 15 4.68 15 4 15 C4.33 13.68 4.66 12.36 5 11 C5.66 11 6.32 11 7 11 C7.99 12.98 8.98 14.96 10 17 C13.96 17 17.92 17 22 17 C21.67 19.64 21.34 22.28 21 25 C23.31 25 25.62 25 28 25 C28 24.01 28 23.02 28 22 C27.34 22 26.68 22 26 22 C26 20.35 26 18.7 26 17 C27.134375 16.87625 28.26875 16.7525 29.4375 16.625 C30.613125 16.41875 31.78875 16.2125 33 16 C33.33 15.34 33.66 14.68 34 14 C34.66 14 35.32 14 36 14 C36.99 15.485 36.99 15.485 38 17 C41.08365871 17.2502157 41.08365871 17.2502157 44 17 C44.33 16.34 44.66 15.68 45 15 C43.35 15 41.7 15 40 15 C39.505 14.01 39.505 14.01 39 13 C44.95703125 12.609375 44.95703125 12.609375 47 13 C47.47695312 13.64839844 47.95390625 14.29679687 48.4453125 14.96484375 C49.83470537 17.2094327 49.83470537 17.2094327 52.34765625 17.64453125 C57.86633059 17.98597441 63.01330465 17.88665559 68.49609375 17.19140625 C72.71157337 16.8691621 76.82531872 17.42265046 81 18 C80.67 16.02 80.34 14.04 80 12 C80.66 12 81.32 12 82 12 C82 14.64 82 17.28 82 20 C80.35 20 78.7 20 77 20 C76.649375 21.2375 76.29875 22.475 75.9375 23.75 C71.24469643 37.56890083 61.43300031 50.26391092 49 58 C48.34 57.34 47.68 56.68 47 56 C47.32226562 55.30777344 47.64453125 54.61554688 47.9765625 53.90234375 C50.1841014 47.64203304 50.14786596 40.42327258 47.3125 34.4375 C46.549375 33.633125 45.78625 32.82875 45 32 C43.9171875 30.8553125 43.9171875 30.8553125 42.8125 29.6875 C38.22693585 26.93616151 33.83976228 26.47906958 28.59375 27.44140625 C23.61241972 28.89429425 20.05342334 30.65118494 17 35 C14.71990102 40.99970746 14.54772748 46.07167046 16.9609375 52.03125 C20.07716829 57.93568729 25.15577409 60.40417757 31 63 C31 63.66 31 64.32 31 65 C27.36730295 66.21089902 23.99624626 66.20052134 20.2109375 66.23828125 C19.43424713 66.246353 18.65755676 66.25442474 17.85733032 66.26274109 C16.20471418 66.27658152 14.55206946 66.28730387 12.89941406 66.29516602 C11.24144871 66.3065505 9.5835159 66.32678017 7.92578125 66.35668945 C-18.6781967 66.83596804 -46.33737992 58.54306986 -66.12109375 40.19921875 C-68 38 -68 38 -68 35 C-67.43152344 34.92523438 -66.86304687 34.85046875 -66.27734375 34.7734375 C-60.075223 33.71731677 -56.10990358 31.81533479 -52 27 C-48.73061133 22.26531537 -46.44808808 17.82514508 -46 12 C-45.34 12 -44.68 12 -44 12 C-44.04125 10.72125 -44.0825 9.4425 -44.125 8.125 C-44.1953125 5.9453125 -44.1953125 5.9453125 -44 4 C-43.34 3.34 -42.68 2.68 -42 2 C-41.97296619 3.93742341 -41.95358875 5.87495479 -41.9375 7.8125 C-41.92589844 8.89144531 -41.91429688 9.97039062 -41.90234375 11.08203125 C-42 14 -42 14 -43 17 C-40.36 17 -37.72 17 -35 17 C-35 16.34 -35 15.68 -35 15 C-35.99 15 -36.98 15 -38 15 C-38 12.03 -38 9.06 -38 6 C-35.35250867 8.64749133 -33.71837368 10.72690727 -32 14 C-32 14.99 -32 15.98 -32 17 C-30.35 17 -28.7 17 -27 17 C-26.67 15.68 -26.34 14.36 -26 13 C-25.62230469 13.64453125 -25.24460938 14.2890625 -24.85546875 14.953125 C-23.13940092 17.24029762 -23.13940092 17.24029762 -20.30078125 17.609375 C-19.31464844 17.65578125 -18.32851563 17.7021875 -17.3125 17.75 C-16.31863281 17.80671875 -15.32476562 17.8634375 -14.30078125 17.921875 C-13.54152344 17.94765625 -12.78226563 17.9734375 -12 18 C-12.66 17.34 -13.32 16.68 -14 16 C-13.38511719 16.10699219 -12.77023438 16.21398437 -12.13671875 16.32421875 C-11.32847656 16.44410156 -10.52023438 16.56398438 -9.6875 16.6875 C-8.88699219 16.81511719 -8.08648437 16.94273438 -7.26171875 17.07421875 C-4.9895234 17.18308867 -4.9895234 17.18308867 -3.28125 15.96875 C-1.37725436 13.04309817 -1.22299618 10.25435257 -0.8125 6.8125 C-0.65394531 5.54019531 -0.49539062 4.26789063 -0.33203125 2.95703125 C-0.22246094 1.98121094 -0.11289063 1.00539063 0 0 Z " fill="#68AD43" transform="translate(68,76)"/>
<path d="M0 0 C1.98 0 3.96 0 6 0 C6.33 2.31 6.66 4.62 7 7 C7.4125 6.505 7.825 6.01 8.25 5.5 C10 4 10 4 14 4 C13.690625 4.5775 13.38125 5.155 13.0625 5.75 C11.1050667 9.83734944 11.1050667 9.83734944 11.6875 14.1875 C12.86857414 16.18006505 12.86857414 16.18006505 15.125 16.75 C15.74375 16.8325 16.3625 16.915 17 17 C17 15.02 17 13.04 17 11 C16.34 11 15.68 11 15 11 C15 10.01 15 9.02 15 8 C16.98 8 18.96 8 21 8 C21 10.97 21 13.94 21 17 C21.66 17 22.32 17 23 17 C22.67 14.03 22.34 11.06 22 8 C23.77007714 7.91885894 25.54122098 7.86074495 27.3125 7.8125 C28.29863281 7.77769531 29.28476563 7.74289063 30.30078125 7.70703125 C33 8 33 8 34.85546875 9.51171875 C35.23316406 10.00285156 35.61085937 10.49398437 36 11 C36.37125 10.505 36.7425 10.01 37.125 9.5 C39.81181653 7.35054677 41.64114713 7.65725991 45 8 C47.375 9 47.375 9 49 10 C49.66 9.34 50.32 8.68 51 8 C54.125 7.875 54.125 7.875 57 8 C57 5.69 57 3.38 57 1 C58.65 1 60.3 1 62 1 C62 1.66 62 2.32 62 3 C61.34 3 60.68 3 60 3 C60.495 11.91 60.495 11.91 61 21 C53.48046875 21.390625 53.48046875 21.390625 51 21 C49.96132716 19.69656741 48.95862792 18.36338193 48 17 C44.37436186 16.66619186 44.37436186 16.66619186 41 17 C42.65 17.33 44.3 17.66 46 18 C45.505 19.485 45.505 19.485 45 21 C43.02 21 41.04 21 39 21 C38.34 19.68 37.68 18.36 37 17 C36.34 17 35.68 17 35 17 C34.505 18.485 34.505 18.485 34 20 C31.69 20 29.38 20 27 20 C27 21.65 27 23.3 27 25 C27.66 25 28.32 25 29 25 C29 25.99 29 26.98 29 28 C26.69 28 24.38 28 22 28 C22 25.69 22 23.38 22 21 C21.24074219 21.05800781 20.48148438 21.11601563 19.69921875 21.17578125 C16.73174507 21.31049147 13.95021106 21.36116153 11 21 C8.73702662 18.54305747 8 17.3203746 8 14 C7.01 14.495 7.01 14.495 6 15 C5.67 15.99 5.34 16.98 5 18 C5.66 18 6.32 18 7 18 C7 18.66 7 19.32 7 20 C4.69 20 2.38 20 0 20 C0 19.34 0 18.68 0 18 C0.66 18 1.32 18 2 18 C2 13.05 2 8.1 2 3 C1.34 3 0.68 3 0 3 C0 2.01 0 1.02 0 0 Z " fill="#E6EFE2" transform="translate(67,73)"/>
<path d="M0 0 C0.70318359 -0.01546875 1.40636719 -0.0309375 2.13085938 -0.046875 C5.77515792 -0.0195513 7.91805611 0.41029274 11.03125 2.34375 C13.0625 4.5 13.0625 4.5 13.625 7.5 C13.0625 10.5 13.0625 10.5 11.5 12.9375 C9.0625 14.5 9.0625 14.5 5.3125 14.25 C4.24 14.0025 3.1675 13.755 2.0625 13.5 C2.3925 14.16 2.7225 14.82 3.0625 15.5 C1.12414034 15.43989582 -0.81334491 15.35108283 -2.75 15.25 C-3.82894531 15.20359375 -4.90789063 15.1571875 -6.01953125 15.109375 C-8.9375 14.5 -8.9375 14.5 -10.796875 12.640625 C-12.3694037 9.689441 -12.41826606 7.79668156 -11.9375 4.5 C-8.70936528 -0.04574073 -5.21075017 -0.114 0 0 Z " fill="#F5F9F4" transform="translate(53.9375,79.5)"/>
<path d="M0 0 C2.31 0 4.62 0 7 0 C6.67 6.6 6.34 13.2 6 20 C4.35 20 2.7 20 1 20 C-0.65 16.7 -2.3 13.4 -4 10 C-4.33 12.64 -4.66 15.28 -5 18 C-4.01 18 -3.02 18 -2 18 C-2 18.66 -2 19.32 -2 20 C-4.64 20 -7.28 20 -10 20 C-10 13.73 -10 7.46 -10 1 C-8.35 1 -6.7 1 -5 1 C-3.19921875 2.96875 -3.19921875 2.96875 -1.6875 5.5 C-1.17574219 6.3353125 -0.66398437 7.170625 -0.13671875 8.03125 C0.23839844 8.6809375 0.61351562 9.330625 1 10 C1.33 7.69 1.66 5.38 2 3 C1.34 3 0.68 3 0 3 C0 2.01 0 1.02 0 0 Z " fill="#E9F1E6" transform="translate(35,73)"/>
<path d="M0 0 C1.98 0 3.96 0 6 0 C6.33 1.98 6.66 3.96 7 6 C8.98 5.01 10.96 4.02 13 3 C11.35 3 9.7 3 8 3 C8 2.01 8 1.02 8 0 C14.625 -0.25 14.625 -0.25 18 2 C18.51171875 4.6015625 18.51171875 4.6015625 18.6875 7.625 C18.78611328 9.12933594 18.78611328 9.12933594 18.88671875 10.6640625 C18.92410156 11.43492188 18.96148437 12.20578125 19 13 C12.88514973 13.09706112 7.06696699 12.77040851 1 12 C1 11.34 1 10.68 1 10 C1.66 10 2.32 10 3 10 C3 7.69 3 5.38 3 3 C2.01 3 1.02 3 0 3 C0 2.01 0 1.02 0 0 Z " fill="#D2E4CA" transform="translate(129,81)"/>
<path d="M0 0 C1.98 0 3.96 0 6 0 C6.33 2.31 6.66 4.62 7 7 C7.4125 6.505 7.825 6.01 8.25 5.5 C10 4 10 4 14 4 C13.690625 4.5775 13.38125 5.155 13.0625 5.75 C10.93813708 10.24865088 10.9956238 13.08971634 12 18 C12.66 18 13.32 18 14 18 C14 18.99 14 19.98 14 21 C12.125 20.875 12.125 20.875 10 20 C8.75 16.9375 8.75 16.9375 8 14 C7.01 14.495 7.01 14.495 6 15 C5.67 15.99 5.34 16.98 5 18 C5.66 18 6.32 18 7 18 C7 18.66 7 19.32 7 20 C4.69 20 2.38 20 0 20 C0 19.34 0 18.68 0 18 C0.66 18 1.32 18 2 18 C2 13.05 2 8.1 2 3 C1.34 3 0.68 3 0 3 C0 2.01 0 1.02 0 0 Z " fill="#ECF3EA" transform="translate(67,73)"/>
<path d="M0 0 C2.83704334 0.40529191 4.64479872 0.94968383 7.0625 2.4375 C7.7225 1.7775 8.3825 1.1175 9.0625 0.4375 C12.1875 0.3125 12.1875 0.3125 15.0625 0.4375 C15.0625 0.7675 15.0625 1.0975 15.0625 1.4375 C14.155 1.72625 13.2475 2.015 12.3125 2.3125 C9.74047092 3.20281776 7.44903234 4.15244413 5.0625 5.4375 C5.3925 6.4275 5.7225 7.4175 6.0625 8.4375 C3.7525 8.7675 1.4425 9.0975 -0.9375 9.4375 C0.7125 9.7675 2.3625 10.0975 4.0625 10.4375 C3.7325 11.4275 3.4025 12.4175 3.0625 13.4375 C0.1875 13.5625 0.1875 13.5625 -2.9375 13.4375 C-5.58258959 10.79241041 -5.71983633 9.13778236 -5.9375 5.4375 C-4.55964568 1.70918832 -4.00517091 0.59651482 0 0 Z " fill="#D9E7D4" transform="translate(108.9375,80.5625)"/>
<path d="M0 0 C2.31 0 4.62 0 7 0 C7 0.99 7 1.98 7 3 C8.65 3.33 10.3 3.66 12 4 C12 5.32 12 6.64 12 8 C10.02 8 8.04 8 6 8 C6 8.99 6 9.98 6 11 C6.99 11 7.98 11 9 11 C9 13.31 9 15.62 9 18 C8.34 18 7.68 18 7 18 C7 18.66 7 19.32 7 20 C8.98 20 10.96 20 13 20 C13 20.33 13 20.66 13 21 C9.04 21.33 5.08 21.66 1 22 C2.32 21.67 3.64 21.34 5 21 C4.67 20.01 4.34 19.02 4 18 C3.92970879 15.42734182 3.90629168 12.88358569 3.9375 10.3125 C3.94201172 9.61060547 3.94652344 8.90871094 3.95117188 8.18554688 C3.96293073 6.45699462 3.98086546 4.72848635 4 3 C4.66 3 5.32 3 6 3 C6 2.34 6 1.68 6 1 C4.35 1 2.7 1 1 1 C1 3.31 1 5.62 1 8 C0.67 8 0.34 8 0 8 C0 5.36 0 2.72 0 0 Z " fill="#ABCD9D" transform="translate(123,73)"/>
<path d="M0 0 C0.86625 0.37125 0.86625 0.37125 1.75 0.75 C-0.725 2.235 -0.725 2.235 -3.25 3.75 C-2.92 3.75 -2.59 3.75 -2.25 3.75 C-0.58178677 4.07550502 1.08499557 4.40846063 2.75 4.75 C2.42 7.06 2.09 9.37 1.75 11.75 C2.719375 11.87375 3.68875 11.9975 4.6875 12.125 C5.698125 12.33125 6.70875 12.5375 7.75 12.75 C8.08 13.41 8.41 14.07 8.75 14.75 C6.81164034 14.68989582 4.87415509 14.60108283 2.9375 14.5 C1.85855469 14.45359375 0.77960937 14.4071875 -0.33203125 14.359375 C-3.25 13.75 -3.25 13.75 -5.109375 11.890625 C-6.6819037 8.939441 -6.73076606 7.04668156 -6.25 3.75 C-3.29485488 -0.36609499 -3.29485488 -0.36609499 0 0 Z " fill="#EAF1E7" transform="translate(48.25,80.25)"/>
<path d="M0 0 C2.75 -0.3125 2.75 -0.3125 6 0 C8.375 2.25 8.375 2.25 10 5 C10 6.32 10 7.64 10 9 C9.34 9 8.68 9 8 9 C7.67 9.99 7.34 10.98 7 12 C4.69 12 2.38 12 0 12 C0.66 11.67 1.32 11.34 2 11 C1.34 10.01 0.68 9.02 0 8 C0.28674418 5.99279077 0.61866701 3.9914056 1 2 C0.67 1.34 0.34 0.68 0 0 Z " fill="#EBF2E9" transform="translate(94,81)"/>
<path d="M0 0 C2.97 0 5.94 0 9 0 C9.33 1.65 9.66 3.3 10 5 C8.02 5 6.04 5 4 5 C4 5.99 4 6.98 4 8 C4.66 8 5.32 8 6 8 C6 9.98 6 11.96 6 14 C3.625 13.75 3.625 13.75 1 13 C-0.62811948 10.8538425 -1.06416343 9.68440991 -0.8125 7 C0.13367619 4.67095092 1.40941599 2.93636314 3 1 C2.01 0.67 1.02 0.34 0 0 Z " fill="#ABCF9C" transform="translate(78,76)"/>
<path d="M0 0 C2.31 0.33 4.62 0.66 7 1 C6.814375 2.093125 6.62875 3.18625 6.4375 4.3125 C5.7421932 7.93624133 5.7421932 7.93624133 7 11 C6.34 11 5.68 11 5 11 C5 12.98 5 14.96 5 17 C5.66 17 6.32 17 7 17 C7 17.99 7 18.98 7 20 C4.69 20 2.38 20 0 20 C0 19.01 0 18.02 0 17 C0.66 17 1.32 17 2 17 C2 12.05 2 7.1 2 2 C1.34 2 0.68 2 0 2 C0 1.34 0 0.68 0 0 Z " fill="#F5F8F4" transform="translate(89,81)"/>
<path d="M0 0 C6.625 -0.25 6.625 -0.25 10 2 C10.51171875 4.3828125 10.51171875 4.3828125 10.6875 7.125 C10.78611328 8.49011719 10.78611328 8.49011719 10.88671875 9.8828125 C10.92410156 10.58148438 10.96148437 11.28015625 11 12 C8.69 12 6.38 12 4 12 C4.66 11.67 5.32 11.34 6 11 C6 9.35 6 7.7 6 6 C5.01 5.67 4.02 5.34 3 5 C4.32 5 5.64 5 7 5 C7 4.34 7 3.68 7 3 C4.69 3 2.38 3 0 3 C0 2.01 0 1.02 0 0 Z " fill="#F0F5EE" transform="translate(137,81)"/>
<path d="M0 0 C0.86625 0.37125 0.86625 0.37125 1.75 0.75 C0.76 1.08 -0.23 1.41 -1.25 1.75 C-1.58 2.74 -1.91 3.73 -2.25 4.75 C-0.93 5.08 0.39 5.41 1.75 5.75 C0.43 5.75 -0.89 5.75 -2.25 5.75 C-1.92 6.41 -1.59 7.07 -1.25 7.75 C1.27733235 8.40555119 1.27733235 8.40555119 3.75 8.75 C3.42 9.74 3.09 10.73 2.75 11.75 C-0.125 11.875 -0.125 11.875 -3.25 11.75 C-5.89194427 9.10805573 -6.10205998 7.4485004 -6.25 3.75 C-3.39285714 -0.37698413 -3.39285714 -0.37698413 0 0 Z " fill="#F1F6EF" transform="translate(109.25,82.25)"/>
<path d="M0 0 C1.98 0 3.96 0 6 0 C6.33 3.96 6.66 7.92 7 12 C5.02 12 3.04 12 1 12 C1 11.34 1 10.68 1 10 C1.66 10 2.32 10 3 10 C3 7.69 3 5.38 3 3 C2.01 3 1.02 3 0 3 C0 2.01 0 1.02 0 0 Z " fill="#EDF3EB" transform="translate(129,81)"/>
<path d="M0 0 C0.33 0.99 0.66 1.98 1 3 C1.99 3 2.98 3 4 3 C4 4.98 4 6.96 4 9 C1.625 8.75 1.625 8.75 -1 8 C-2.7941758 5.43689172 -3 4.16880694 -3 1 C-2.01 0.67 -1.02 0.34 0 0 Z " fill="#6BAF49" transform="translate(80,81)"/>
<path d="M0 0 C1.67542976 0.28604898 3.34385343 0.61781233 5 1 C4.67 2.98 4.34 4.96 4 7 C2.35 6.67 0.7 6.34 -1 6 C-1.042721 4.33388095 -1.04063832 2.66617115 -1 1 C-0.67 0.67 -0.34 0.34 0 0 Z " fill="#7BB65F" transform="translate(59,84)"/>
<path d="M0 0 C1.65 0.33 3.3 0.66 5 1 C5 2.65 5 4.3 5 6 C3.125 6.625 3.125 6.625 1 7 C0.34 6.34 -0.32 5.68 -1 5 C-0.625 2.375 -0.625 2.375 0 0 Z " fill="#79B55C" transform="translate(46,84)"/>
<path d="M0 0 C2.63564456 2.63564456 4.31830856 4.72070169 6 8 C5 10 5 10 3 11 C3 10.34 3 9.68 3 9 C2.01 9 1.02 9 0 9 C0 6.03 0 3.06 0 0 Z " fill="#7CB661" transform="translate(30,82)"/>
<path d="M0 0 C1.67542976 0.28604898 3.34385343 0.61781233 5 1 C5 2.65 5 4.3 5 6 C3.35 6 1.7 6 0 6 C-0.38218767 4.34385343 -0.71395102 2.67542976 -1 1 C-0.67 0.67 -0.34 0.34 0 0 Z " fill="#7EB763" transform="translate(119,84)"/>
<path d="M0 0 C0.33 0 0.66 0 1 0 C1.33102914 3.6413205 1.42019439 5.41472925 -0.75 8.4375 C-3 10 -3 10 -5.25 9.75 C-6.11625 9.37875 -6.11625 9.37875 -7 9 C-6.67 8.34 -6.34 7.68 -6 7 C-5.01 7 -4.02 7 -3 7 C-2.814375 5.824375 -2.814375 5.824375 -2.625 4.625 C-2 2 -2 2 0 0 Z " fill="#EBF2E8" transform="translate(66,84)"/>
<path d="M0 0 C0.66 0.99 1.32 1.98 2 3 C4.05003955 4.19232613 4.05003955 4.19232613 6 5 C5.67 5.66 5.34 6.32 5 7 C5.66 7.33 6.32 7.66 7 8 C4.125 8.125 4.125 8.125 1 8 C0.34 7.34 -0.32 6.68 -1 6 C-0.625 2.875 -0.625 2.875 0 0 Z " fill="#DBE9D6" transform="translate(117,86)"/>
<path d="M0 0 C1.65 0 3.3 0 5 0 C5.33 1.32 5.66 2.64 6 4 C4.35 4.33 2.7 4.66 1 5 C0.67 3.35 0.34 1.7 0 0 Z " fill="#7AB55D" transform="translate(94,85)"/>
<path d="M0 0 C0.66 0 1.32 0 2 0 C2.93423645 3.01031744 3.04449911 3.86650268 2 7 C-0.64 7 -3.28 7 -6 7 C-6 6.67 -6 6.34 -6 6 C-3.69 6 -1.38 6 1 6 C1 5.34 1 4.68 1 4 C0.34 4 -0.32 4 -1 4 C-0.67 2.68 -0.34 1.36 0 0 Z " fill="#A2C892" transform="translate(73,87)"/>
<path d="M0 0 C0.33 0.66 0.66 1.32 1 2 C2.65 1.67 4.3 1.34 6 1 C6.33 1.66 6.66 2.32 7 3 C6.05125 3.268125 5.1025 3.53625 4.125 3.8125 C0.74732727 4.74986588 0.74732727 4.74986588 -1 8 C-1.04241723 5.66705225 -1.04092937 3.33297433 -1 1 C-0.67 0.67 -0.34 0.34 0 0 Z " fill="#83B96B" transform="translate(136,82)"/>
<path d="M0 0 C0.99 0 1.98 0 3 0 C3 1.98 3 3.96 3 6 C2.01 6.33 1.02 6.66 0 7 C0 4.69 0 2.38 0 0 Z " fill="#6BAE48" transform="translate(128,84)"/>
<path d="M0 0 C0 0.33 0 0.66 0 1 C-3.96 0.67 -7.92 0.34 -12 0 C-12 -0.33 -12 -0.66 -12 -1 C-7.28400182 -1.92470553 -4.32734391 -2.22923777 0 0 Z " fill="#A8CB9B" transform="translate(57,94)"/>
</svg>
